<?xml version="1.0" encoding="UTF-8"?>
<svg width="40px" height="40px" viewBox="0 0 40 40" version="1.1" xmlns="http://www.w3.org/2000/svg" xmlns:xlink="http://www.w3.org/1999/xlink">
    <!-- Generator: Sketch 50.2 (55047) - http://www.bohemiancoding.com/sketch -->
    <title>builder</title>
    <desc>Created with Sketch.</desc>
    <defs></defs>
    <g id="Page-1" stroke="none" stroke-width="1" fill="none" fill-rule="evenodd">
        <g id="Testwriting-List" transform="translate(-90.000000, -22.000000)">
            <g id="builder" transform="translate(90.000000, 22.000000)">
                <circle id="Oval-3" fill="#B9C8CE" cx="20" cy="20" r="20"></circle>
                <path d="M23.8710637,26.4726575 L28.7226146,21.6211066 L31.2538586,24.1523505 L26.4023076,29.0039015 L24.2577815,29.2499946 C24.0702821,29.2734323 23.9120794,29.220698 23.7831732,29.0917919 C23.6542671,28.9628858 23.6015329,28.804683 23.6249705,28.6171836 L23.8710637,26.4726575 Z M33.5038532,20.7070463 C33.6679155,20.8711085 33.7499464,21.0703265 33.7499464,21.3047011 C33.7499464,21.5390757 33.6679155,21.7382936 33.5038532,21.9023559 L32.0272942,23.3437587 L29.5312064,20.8476709 L30.9726092,19.3711119 C31.1366715,19.2070497 31.3358894,19.1250188 31.5702641,19.1250188 C31.8046387,19.1250188 32.0038566,19.2070497 32.1679189,19.3711119 L33.5038532,20.7070463 Z M19.1249812,21.3750134 C18.2109209,21.3750134 17.3671729,21.1464983 16.5937373,20.6894682 C15.8203016,20.232438 15.2050687,19.6172051 14.7480385,18.8437694 C14.2910084,18.0703338 14.0624933,17.2265858 14.0624933,16.3125255 C14.0624933,15.3984652 14.2910084,14.5547172 14.7480385,13.7812815 C15.2050687,13.0078459 15.8203016,12.392613 16.5937373,11.9355828 C17.3671729,11.4785526 18.2109209,11.2500376 19.1249812,11.2500376 C20.0390415,11.2500376 20.8827895,11.4785526 21.6562252,11.9355828 C22.4296608,12.392613 23.0448938,13.0078459 23.5019239,13.7812815 C23.9589541,14.5547172 24.1874692,15.3984652 24.1874692,16.3125255 C24.1874692,17.2265858 23.9589541,18.0703338 23.5019239,18.8437694 C23.0448938,19.6172051 22.4296608,20.232438 21.6562252,20.6894682 C20.8827895,21.1464983 20.0390415,21.3750134 19.1249812,21.3750134 Z M18.9843566,12.9375335 L18.9492004,12.9375335 C18.1054524,12.9844082 17.3730325,13.3183918 16.75194,13.9394843 C16.1308476,14.5605767 15.796864,15.2929967 15.7499893,16.1367447 C15.7265516,16.7929933 15.8730359,17.3965071 16.1894413,17.9472872 C16.5058468,18.4980673 16.9394394,18.9316599 17.4902195,19.2480654 C18.0409996,19.5644709 18.6445134,19.7109551 19.3007621,19.6875174 C20.14451,19.6406427 20.87693,19.3066591 21.4980224,18.6855667 C22.1191149,18.0644743 22.4530985,17.3320543 22.4999732,16.4883063 C22.5234108,15.8320577 22.3769266,15.2285439 22.0605211,14.6777638 C21.7441156,14.1269836 21.3105231,13.6933911 20.759743,13.3769856 C20.2089628,13.0605801 19.6171676,12.9140959 18.9843566,12.9375335 Z M15.9609263,23.625008 C15.1406159,23.625008 14.431633,23.9238355 13.8339782,24.5214903 C13.2363234,25.1191451 12.937496,25.828128 12.937496,26.6484383 L12.937496,27.5624987 L22.042943,27.5624987 L22.0077869,27.9492165 C21.9609121,28.3007781 21.9374745,28.5527309 21.9374745,28.7050741 C21.9374745,28.8574173 21.9609121,29.0390576 22.0077869,29.2499946 L12.937496,29.2499946 C12.4687473,29.2499946 12.0703104,29.0859323 11.7421863,28.7578083 C11.4140623,28.4296843 11.25,28.0312474 11.25,27.5624987 L11.25,26.6484383 C11.25,25.8046903 11.460937,25.0195362 11.882811,24.2929752 C12.304685,23.5664143 12.8789022,22.9921971 13.6054631,22.5703231 C14.3320241,22.1484491 15.1171783,21.9375121 15.9609263,21.9375121 C16.2656132,21.9375121 16.6640496,22.0195429 17.1562359,22.1836052 C17.48436,22.2773552 17.7538907,22.3476675 17.9648277,22.3945422 C18.3163894,22.4648546 18.7031072,22.5000107 19.1249812,22.5000107 C19.5468552,22.5000107 19.933573,22.4648546 20.2851347,22.3945422 C20.4960717,22.3476675 20.7656025,22.2773552 21.0937265,22.1836052 C21.5859129,22.0195429 21.9843492,21.9375121 22.2890362,21.9375121 C23.2968465,21.9375121 24.2343439,22.2539176 25.1015295,22.8867286 L23.8710637,24.0820382 C23.3788773,23.7773513 22.8515348,23.625008 22.2890362,23.625008 C22.1484115,23.625008 21.9140369,23.6718828 21.5859129,23.7656327 C20.7421649,24.046882 19.9277135,24.1875067 19.1425593,24.1875067 C18.3574051,24.1875067 17.5312352,24.046882 16.6640496,23.7656327 C16.3124879,23.6718828 16.0781133,23.625008 15.9609263,23.625008 Z" id="-copy-2" fill="#FFFFFF"></path>
            </g>
        </g>
    </g>
</svg>