<?xml version="1.0" encoding="UTF-8"?>
<svg width="40px" height="40px" viewBox="0 0 40 40" version="1.1" xmlns="http://www.w3.org/2000/svg" xmlns:xlink="http://www.w3.org/1999/xlink">
    <!-- Generator: Sketch 50.2 (55047) - http://www.bohemiancoding.com/sketch -->
    <title>Group 3</title>
    <desc>Created with Sketch.</desc>
    <defs></defs>
    <g id="Third-Iterations" stroke="none" stroke-width="1" fill="none" fill-rule="evenodd">
        <g id="Group-3">
            <circle id="Oval-2" fill="#3F8D4A" cx="20" cy="20" r="20"></circle>
            <path d="M24.2728636,18.4400621 C24.2728636,18.2401621 24.2062302,18.0735787 24.0729635,17.940312 C23.9396968,17.8070453 23.7731134,17.7337486 23.5732134,17.7204219 C22.2938531,17.7204219 21.1077794,17.9069953 20.0149925,18.2801421 C18.9222056,18.6532888 17.956022,19.1463756 17.1164418,19.7594024 C16.2768616,20.3724293 15.4039647,21.1920195 14.4977511,22.2181731 C14.3511578,22.3780931 14.2778611,22.5446765 14.2778611,22.7179232 C14.2778611,22.9178232 14.3511578,23.0844066 14.4977511,23.2176733 C14.6443445,23.35094 14.8109279,23.4242367 14.9975012,23.4375634 C15.170748,23.4375634 15.3373313,23.3642667 15.4972514,23.2176733 C15.6971514,23.0444266 15.9703482,22.7845565 16.3168416,22.4380631 C16.663335,22.0915697 16.9165417,21.8450263 17.0764618,21.6984329 C18.0892887,20.7788927 19.0887889,20.1258859 20.0749625,19.7394124 C21.0611361,19.352939 22.2272197,19.1597023 23.5732134,19.1597023 C23.7597868,19.1597023 23.9263701,19.0864056 24.0729635,18.9398122 C24.2195569,18.7932189 24.2861902,18.6266355 24.2728636,18.4400621 Z M29.990005,16.2211716 C29.990005,16.9274851 29.9167083,17.6471252 29.7701149,18.3800921 C29.4236215,20.0459258 28.737298,21.4718795 27.7111444,22.6579532 C26.6849908,23.8440268 25.3523238,24.8368637 23.7131434,25.6364639 C22.1272697,26.4493908 20.501416,26.8558542 18.8355822,26.8558542 C17.7294686,26.8558542 16.663335,26.6759442 15.6371814,26.3161241 C15.530568,26.2894707 15.2040646,26.136214 14.6576712,25.856354 C14.1112777,25.5764939 13.7581209,25.4365639 13.5982009,25.4365639 C13.4782609,25.4365639 13.3316675,25.5565039 13.1584208,25.7963839 C12.9851741,26.036264 12.8185907,26.2961341 12.6586707,26.5759941 C12.4987506,26.8558542 12.2988506,27.1157243 12.0589705,27.3556043 C11.8190905,27.5954844 11.5992004,27.7154244 11.3993003,27.7154244 C11.0794603,27.7154244 10.8395802,27.6487911 10.6796602,27.5155244 C10.5197401,27.3822577 10.3531568,27.1623676 10.17991,26.8558542 C10.1665834,26.8292009 10.1465934,26.7892209 10.11994,26.7359142 C10.0932867,26.6826075 10.0732967,26.6426275 10.05997,26.6159742 C10.0466433,26.5893208 10.0333167,26.5560041 10.01999,26.5160241 C10.0066633,26.4760441 10,26.4294008 10,26.3760941 C10,26.1095607 10.1132767,25.836364 10.3398301,25.5565039 C10.5663835,25.2766438 10.8195902,25.0301004 11.0994503,24.8168737 C11.3793103,24.603647 11.6325171,24.3970836 11.8590705,24.1971835 C12.0856239,23.9972835 12.2055639,23.8173735 12.2188906,23.6574534 C12.2188906,23.6308001 12.1655839,23.49087 12.0589705,23.2376633 C11.9523572,22.9844566 11.8923871,22.8178732 11.8790605,22.7379132 C11.8124271,22.3647664 11.7791104,21.978293 11.7791104,21.5784929 C11.7791104,20.725586 11.9390305,19.9059958 12.2588706,19.1197223 C12.5787106,18.3334487 13.0184908,17.6471252 13.5782109,17.0607518 C14.137931,16.4743783 14.7776112,15.9613015 15.4972514,15.5215214 C16.2168916,15.0817413 16.9698484,14.7285845 17.7561219,14.4620511 C18.1692487,14.3287844 18.7089788,14.2288344 19.3753123,14.162201 C20.0416458,14.0955677 20.7146427,14.062251 21.3943028,14.062251 C22.073963,14.062251 22.7336332,14.042261 23.3733133,14.002281 C24.0129935,13.962301 24.619357,13.8756776 25.1924038,13.7424109 C25.7654506,13.6091442 26.191904,13.3959175 26.4717641,13.1027308 L26.7916042,12.7828907 C26.7916042,12.7828907 27.1314343,12.4630506 27.1314343,12.4630506 C27.1314343,12.4630506 27.3387915,12.3142969 27.4312844,12.2431606 C27.5237772,12.1720243 27.8310845,12.0632505 27.8310845,12.0632505 C27.8310845,12.0632505 28.0735218,11.9830172 28.3108446,12.0032805 C28.6040313,12.0032805 28.8705647,12.1765272 29.1104448,12.5230206 C29.3503248,12.869514 29.5235715,13.2893042 29.6301849,13.7823909 C29.7367983,14.2754777 29.830085,14.7352478 29.910045,15.1617013 C29.990005,15.5881547 30.0166583,15.9413115 29.990005,16.2211716 Z" id="Shape-Copy" fill="#FFFFFF" fill-rule="nonzero"></path>
        </g>
    </g>
</svg>