<?xml version="1.0" encoding="UTF-8"?>
<svg width="134px" height="33px" viewBox="0 0 134 33" version="1.1" xmlns="http://www.w3.org/2000/svg" xmlns:xlink="http://www.w3.org/1999/xlink">
    <!-- Generator: Sketch 50.2 (55047) - http://www.bohemiancoding.com/sketch -->
    <title>rate-button</title>
    <desc>Created with Sketch.</desc>
    <defs></defs>
    <g id="Page-1" stroke="none" stroke-width="1" fill="none" fill-rule="evenodd">
        <g id="rate-button">
            <rect id="Rectangle-2-Copy-5" stroke="#D1D1D1" fill="#F7F9FA" x="0.5" y="0.5" width="133" height="31.1899986" rx="3"></rect>
            <g id="Group-10" transform="translate(10.000000, 6.000000)" fill="#555555">
                <path d="M8.40622996,8.06251654 L9.15622817,8.78126483 C9.19789458,8.84376468 9.21872802,8.92188949 9.21872802,9.01563927 C9.21872802,9.10938904 9.19789458,9.17709738 9.15622817,9.21876378 L5.43748704,12.906255 C5.37498719,12.9687548 5.30207085,13.0000048 5.21873756,13.0000048 C5.13540426,13.0000048 5.06248793,12.9687548 4.99998808,12.906255 L2.84374322,10.7500101 C2.78124337,10.6875103 2.74999344,10.6145939 2.74999344,10.5312607 C2.74999344,10.4479274 2.78124337,10.375011 2.84374322,10.3125112 L3.59374143,9.56251296 C3.65624128,9.52084656 3.72915762,9.50001311 3.81249091,9.50001311 C3.8958242,9.50001311 3.96874054,9.52084656 4.03124039,9.56251296 L5.21873756,10.7812601 L7.968731,8.06251654 C8.03123085,8.00001669 8.10414719,7.96876676 8.18748048,7.96876676 C8.27081377,7.96876676 8.34373011,8.00001669 8.40622996,8.06251654 Z M10.499975,3.00002861 C10.9166405,3.00002861 11.2708066,3.14586175 11.5624724,3.43752757 C11.8541382,3.72919338 11.9999714,4.08335952 11.9999714,4.50002503 L11.9999714,15.4999988 C11.9999714,15.9166643 11.8541382,16.2708305 11.5624724,16.5624963 C11.2708066,16.8541621 10.9166405,16.9999952 10.499975,16.9999952 L1.49999642,16.9999952 C1.08333091,16.9999952 0.729164769,16.8541621 0.437498957,16.5624963 C0.145833145,16.2708305 0,15.9166643 0,15.4999988 L0,4.50002503 C0,4.08335952 0.145833145,3.72919338 0.437498957,3.43752757 C0.729164769,3.14586175 1.08333091,3.00002861 1.49999642,3.00002861 L3.99999046,3.00002861 C3.99999046,2.45836339 4.1979065,1.98961451 4.59373905,1.59378196 C4.9895716,1.19794941 5.45832048,1.00003338 5.99998569,1.00003338 C6.54165091,1.00003338 7.01039979,1.19794941 7.40623234,1.59378196 C7.80206489,1.98961451 7.99998093,2.45836339 7.99998093,3.00002861 L10.499975,3.00002861 Z M5.99998569,2.5000298 C5.85415255,2.5000298 5.73436133,2.54690469 5.64061155,2.64065447 C5.54686178,2.73440424 5.49998689,2.85419547 5.49998689,3.00002861 C5.49998689,3.14586175 5.54686178,3.26565298 5.64061155,3.35940275 C5.73436133,3.45315253 5.85415255,3.50002742 5.99998569,3.50002742 C6.14581884,3.50002742 6.26561006,3.45315253 6.35935984,3.35940275 C6.45310961,3.26565298 6.4999845,3.14586175 6.4999845,3.00002861 C6.4999845,2.85419547 6.45310961,2.73440424 6.35935984,2.64065447 C6.26561006,2.54690469 6.14581884,2.5000298 5.99998569,2.5000298 Z M10.499975,15.2499994 L10.499975,4.75002444 C10.499975,4.68752459 10.4739335,4.63023322 10.4218502,4.57814985 C10.3697668,4.52606648 10.3124754,4.50002503 10.2499756,4.50002503 L8.99997854,4.50002503 L8.99997854,5.50002265 C8.99997854,5.64585579 8.95310365,5.76564702 8.85935388,5.85939679 C8.7656041,5.95314657 8.64581288,6.00002146 8.49997973,6.00002146 L3.49999166,6.00002146 C3.35415851,6.00002146 3.23436729,5.95314657 3.14061751,5.85939679 C3.04686774,5.76564702 2.99999285,5.64585579 2.99999285,5.50002265 L2.99999285,4.50002503 L1.74999583,4.50002503 C1.68749598,4.50002503 1.63020461,4.52606648 1.57812124,4.57814985 C1.52603787,4.63023322 1.49999642,4.68752459 1.49999642,4.75002444 L1.49999642,15.2499994 C1.49999642,15.3124993 1.52603787,15.3697906 1.57812124,15.421874 C1.63020461,15.4739574 1.68749598,15.4999988 1.74999583,15.4999988 L10.2499756,15.4999988 C10.3124754,15.4999988 10.3697668,15.4739574 10.4218502,15.421874 C10.4739335,15.3697906 10.499975,15.3124993 10.499975,15.2499994 Z" id=""></path>
                <path d="M19.953125,9.65429688 L21.0878906,9.65429688 C21.8489621,9.65429688 22.4003889,9.51302225 22.7421875,9.23046875 C23.0839861,8.94791525 23.2548828,8.52864861 23.2548828,7.97265625 C23.2548828,7.40754926 23.0703143,7.00195436 22.7011719,6.75585938 C22.3320294,6.50976439 21.7760454,6.38671875 21.0332031,6.38671875 L19.953125,6.38671875 L19.953125,9.65429688 Z M19.953125,11.0078125 L19.953125,15 L18.3193359,15 L18.3193359,5.00585938 L21.1425781,5.00585938 C22.4322981,5.00585938 23.3870412,5.24739342 24.0068359,5.73046875 C24.6266307,6.21354408 24.9365234,6.94270346 24.9365234,7.91796875 C24.9365234,9.1621156 24.2893945,10.0485 22.9951172,10.5771484 L25.8183594,15 L23.9589844,15 L21.5664062,11.0078125 L19.953125,11.0078125 Z M31.8271484,15 L31.5058594,13.9472656 L31.4511719,13.9472656 C31.0865867,14.4075544 30.7197284,14.7208651 30.3505859,14.887207 C29.9814435,15.053549 29.5074899,15.1367188 28.9287109,15.1367188 C28.1858687,15.1367188 27.6059591,14.9361999 27.1889648,14.5351562 C26.7719706,14.1341126 26.5634766,13.5667354 26.5634766,12.8330078 C26.5634766,12.053707 26.8528617,11.4658223 27.4316406,11.0693359 C28.0104196,10.6728496 28.8922467,10.4563804 30.0771484,10.4199219 L31.3828125,10.3789062 L31.3828125,9.97558594 C31.3828125,9.49251061 31.2700207,9.13134885 31.0444336,8.89208984 C30.8188465,8.65283083 30.4690779,8.53320312 29.9951172,8.53320312 C29.6077455,8.53320312 29.2363299,8.5901687 28.8808594,8.70410156 C28.5253888,8.81803442 28.1835954,8.95247318 27.8554688,9.10742188 L27.3359375,7.95898438 C27.7460958,7.7447906 28.1949845,7.58186905 28.6826172,7.47021484 C29.1702498,7.35856064 29.6305317,7.30273438 30.0634766,7.30273438 C31.0250699,7.30273438 31.7508114,7.5123677 32.2407227,7.93164062 C32.730634,8.35091355 32.9755859,9.00943562 32.9755859,9.90722656 L32.9755859,15 L31.8271484,15 Z M29.4345703,13.90625 C30.0179066,13.90625 30.4861636,13.7433285 30.8393555,13.4174805 C31.1925473,13.0916325 31.3691406,12.6347686 31.3691406,12.046875 L31.3691406,11.390625 L30.3984375,11.4316406 C29.6419233,11.4589845 29.0916358,11.5854481 28.7475586,11.8110352 C28.4034814,12.0366222 28.2314453,12.3818336 28.2314453,12.8466797 C28.2314453,13.183921 28.3317047,13.4448233 28.5322266,13.6293945 C28.7327484,13.8139658 29.0335266,13.90625 29.4345703,13.90625 Z M38.0341797,13.8378906 C38.4261087,13.8378906 38.8180319,13.7763678 39.2099609,13.6533203 L39.2099609,14.8632812 C39.0322257,14.9407556 38.8032241,15.0056964 38.5229492,15.0581055 C38.2426744,15.1105146 37.9521499,15.1367188 37.6513672,15.1367188 C36.1292242,15.1367188 35.3681641,14.3346434 35.3681641,12.7304688 L35.3681641,8.65625 L34.3359375,8.65625 L34.3359375,7.9453125 L35.4433594,7.35742188 L35.9902344,5.7578125 L36.9814453,5.7578125 L36.9814453,7.43945312 L39.1347656,7.43945312 L39.1347656,8.65625 L36.9814453,8.65625 L36.9814453,12.703125 C36.9814453,13.0904967 37.0782868,13.3764639 37.2719727,13.5610352 C37.4656585,13.7456064 37.719725,13.8378906 38.0341797,13.8378906 Z M44.0224609,15.1367188 C42.8466738,15.1367188 41.9272494,14.793786 41.2641602,14.1079102 C40.6010709,13.4220343 40.2695312,12.4775451 40.2695312,11.2744141 C40.2695312,10.0393818 40.5771454,9.06868843 41.1923828,8.36230469 C41.8076203,7.65592095 42.6529894,7.30273438 43.7285156,7.30273438 C44.7265675,7.30273438 45.5149711,7.60579124 46.09375,8.21191406 C46.6725289,8.81803688 46.9619141,9.65201292 46.9619141,10.7138672 L46.9619141,11.5820312 L41.9238281,11.5820312 C41.9466147,12.3157589 42.1448549,12.8797181 42.5185547,13.2739258 C42.8922545,13.6681335 43.4186164,13.8652344 44.0976562,13.8652344 C44.5442731,13.8652344 44.9601218,13.8230798 45.3452148,13.7387695 C45.7303079,13.6544592 46.143878,13.5143239 46.5859375,13.3183594 L46.5859375,14.6240234 C46.1940085,14.8108733 45.797528,14.9430335 45.3964844,15.0205078 C44.9954407,15.0979822 44.5374375,15.1367188 44.0224609,15.1367188 Z M43.7285156,8.51953125 C43.2180964,8.51953125 42.8090836,8.68131349 42.5014648,9.00488281 C42.1938461,9.32845214 42.010417,9.80012711 41.9511719,10.4199219 L45.3828125,10.4199219 C45.3736979,9.79556979 45.2233088,9.32275551 44.9316406,9.00146484 C44.6399725,8.68017417 44.2389348,8.51953125 43.7285156,8.51953125 Z M55.4179688,9.56542969 L57.7832031,5.00585938 L59.5605469,5.00585938 L56.2314453,11.1240234 L56.2314453,15 L54.5908203,15 L54.5908203,11.1787109 L51.2753906,5.00585938 L53.0527344,5.00585938 L55.4179688,9.56542969 Z M67.4150391,11.2060547 C67.4150391,12.4410869 67.0983105,13.4049445 66.4648438,14.0976562 C65.831377,14.790368 64.9495499,15.1367188 63.8193359,15.1367188 C63.1129522,15.1367188 62.4886095,14.9772151 61.9462891,14.6582031 C61.4039686,14.3391911 60.9869806,13.8811879 60.6953125,13.2841797 C60.4036444,12.6871715 60.2578125,11.9944701 60.2578125,11.2060547 C60.2578125,9.9801371 60.5722625,9.02311542 61.2011719,8.33496094 C61.8300813,7.64680646 62.7164656,7.30273438 63.8603516,7.30273438 C64.954107,7.30273438 65.8199838,7.65478164 66.4580078,8.35888672 C67.0960318,9.0629918 67.4150391,10.0120383 67.4150391,11.2060547 Z M61.9121094,11.2060547 C61.9121094,12.9515061 62.5569597,13.8242188 63.8466797,13.8242188 C65.1227277,13.8242188 65.7607422,12.9515061 65.7607422,11.2060547 C65.7607422,9.47883251 65.1181705,8.61523438 63.8330078,8.61523438 C63.1585253,8.61523438 62.6697606,8.83853943 62.3666992,9.28515625 C62.0636378,9.73177307 61.9121094,10.3720661 61.9121094,11.2060547 Z M74.5927734,15 L74.3671875,14.0087891 L74.2851562,14.0087891 C74.0618478,14.3597023 73.7439799,14.6354157 73.331543,14.8359375 C72.919106,15.0364593 72.4485704,15.1367188 71.9199219,15.1367188 C71.0039017,15.1367188 70.3203148,14.9088564 69.8691406,14.453125 C69.4179665,13.9973936 69.1923828,13.3069708 69.1923828,12.3818359 L69.1923828,7.43945312 L70.8125,7.43945312 L70.8125,12.1015625 C70.8125,12.6803414 70.9309884,13.1144191 71.1679688,13.4038086 C71.4049491,13.6931981 71.7763647,13.8378906 72.2822266,13.8378906 C72.9567091,13.8378906 73.4523096,13.6362325 73.769043,13.2329102 C74.0857763,12.8295878 74.2441406,12.1539761 74.2441406,11.2060547 L74.2441406,7.43945312 L75.8574219,7.43945312 L75.8574219,15 L74.5927734,15 Z M81.9824219,7.30273438 C82.3059912,7.30273438 82.5725901,7.32552061 82.7822266,7.37109375 L82.625,8.86816406 C82.3971343,8.81347629 82.1601575,8.78613281 81.9140625,8.78613281 C81.2714812,8.78613281 80.7508158,8.99576613 80.3520508,9.41503906 C79.9532858,9.83431199 79.7539062,10.3789029 79.7539062,11.0488281 L79.7539062,15 L78.1474609,15 L78.1474609,7.43945312 L79.4052734,7.43945312 L79.6171875,8.77246094 L79.6992188,8.77246094 C79.949871,8.32128681 80.2768535,7.96354299 80.6801758,7.69921875 C81.0834981,7.43489451 81.5175758,7.30273438 81.9824219,7.30273438 Z M89.625,9.65429688 L90.7597656,9.65429688 C91.5208371,9.65429688 92.0722639,9.51302225 92.4140625,9.23046875 C92.7558611,8.94791525 92.9267578,8.52864861 92.9267578,7.97265625 C92.9267578,7.40754926 92.7421893,7.00195436 92.3730469,6.75585938 C92.0039044,6.50976439 91.4479204,6.38671875 90.7050781,6.38671875 L89.625,6.38671875 L89.625,9.65429688 Z M89.625,11.0078125 L89.625,15 L87.9912109,15 L87.9912109,5.00585938 L90.8144531,5.00585938 C92.1041731,5.00585938 93.0589162,5.24739342 93.6787109,5.73046875 C94.2985057,6.21354408 94.6083984,6.94270346 94.6083984,7.91796875 C94.6083984,9.1621156 93.9612695,10.0485 92.6669922,10.5771484 L95.4902344,15 L93.6308594,15 L91.2382812,11.0078125 L89.625,11.0078125 Z M102.100586,15 L101.875,14.0087891 L101.792969,14.0087891 C101.56966,14.3597023 101.251792,14.6354157 100.839355,14.8359375 C100.426919,15.0364593 99.9563829,15.1367188 99.4277344,15.1367188 C98.5117142,15.1367188 97.8281273,14.9088564 97.3769531,14.453125 C96.925779,13.9973936 96.7001953,13.3069708 96.7001953,12.3818359 L96.7001953,7.43945312 L98.3203125,7.43945312 L98.3203125,12.1015625 C98.3203125,12.6803414 98.4388009,13.1144191 98.6757812,13.4038086 C98.9127616,13.6931981 99.2841772,13.8378906 99.7900391,13.8378906 C100.464522,13.8378906 100.960122,13.6362325 101.276855,13.2329102 C101.593589,12.8295878 101.751953,12.1539761 101.751953,11.2060547 L101.751953,7.43945312 L103.365234,7.43945312 L103.365234,15 L102.100586,15 Z M112.306641,15 L110.693359,15 L110.693359,10.3515625 C110.693359,9.76822625 110.57601,9.33300925 110.341309,9.04589844 C110.106607,8.75878763 109.734052,8.61523438 109.223633,8.61523438 C108.544593,8.61523438 108.047853,8.8157532 107.733398,9.21679688 C107.418944,9.61784055 107.261719,10.2900343 107.261719,11.2333984 L107.261719,15 L105.655273,15 L105.655273,7.43945312 L106.913086,7.43945312 L107.138672,8.43066406 L107.220703,8.43066406 C107.448569,8.07063622 107.772133,7.79264421 108.191406,7.59667969 C108.610679,7.40071517 109.075518,7.30273438 109.585938,7.30273438 C111.399749,7.30273438 112.306641,8.22557671 112.306641,10.0712891 L112.306641,15 Z" id="Rate-Your-Run"></path>
            </g>
        </g>
    </g>
</svg>