<?xml version="1.0" encoding="UTF-8"?>
<svg width="134px" height="33px" viewBox="0 0 134 33" version="1.1" xmlns="http://www.w3.org/2000/svg" xmlns:xlink="http://www.w3.org/1999/xlink">
    <!-- Generator: Sketch 50.2 (55047) - http://www.bohemiancoding.com/sketch -->
    <title>rate-button-hover</title>
    <desc>Created with Sketch.</desc>
    <defs></defs>
    <g id="Page-1" stroke="none" stroke-width="1" fill="none" fill-rule="evenodd">
        <g id="rate-button-hover">
            <rect id="Rectangle-2-Copy-5" stroke="#D1D1D1" fill="#FFFFFF" x="0.5" y="0.5" width="133" height="31.1899986" rx="3"></rect>
            <g id="Group-10" transform="translate(10.000000, 6.000000)" fill="#555555">
                <path d="M8.40622996,8.06251654 L9.15622817,8.78126483 C9.19789458,8.84376468 9.21872802,8.92188949 9.21872802,9.01563927 C9.21872802,9.10938904 9.19789458,9.17709738 9.15622817,9.21876378 L5.43748704,12.906255 C5.37498719,12.9687548 5.30207085,13.0000048 5.21873756,13.0000048 C5.13540426,13.0000048 5.06248793,12.9687548 4.99998808,12.906255 L2.84374322,10.7500101 C2.78124337,10.6875103 2.74999344,10.6145939 2.74999344,10.5312607 C2.74999344,10.4479274 2.78124337,10.375011 2.84374322,10.3125112 L3.59374143,9.56251296 C3.65624128,9.52084656 3.72915762,9.50001311 3.81249091,9.50001311 C3.8958242,9.50001311 3.96874054,9.52084656 4.03124039,9.56251296 L5.21873756,10.7812601 L7.968731,8.06251654 C8.03123085,8.00001669 8.10414719,7.96876676 8.18748048,7.96876676 C8.27081377,7.96876676 8.34373011,8.00001669 8.40622996,8.06251654 Z M10.499975,3.00002861 C10.9166405,3.00002861 11.2708066,3.14586175 11.5624724,3.43752757 C11.8541382,3.72919338 11.9999714,4.08335952 11.9999714,4.50002503 L11.9999714,15.4999988 C11.9999714,15.9166643 11.8541382,16.2708305 11.5624724,16.5624963 C11.2708066,16.8541621 10.9166405,16.9999952 10.499975,16.9999952 L1.49999642,16.9999952 C1.08333091,16.9999952 0.729164769,16.8541621 0.437498957,16.5624963 C0.145833145,16.2708305 0,15.9166643 0,15.4999988 L0,4.50002503 C0,4.08335952 0.145833145,3.72919338 0.437498957,3.43752757 C0.729164769,3.14586175 1.08333091,3.00002861 1.49999642,3.00002861 L3.99999046,3.00002861 C3.99999046,2.45836339 4.1979065,1.98961451 4.59373905,1.59378196 C4.9895716,1.19794941 5.45832048,1.00003338 5.99998569,1.00003338 C6.54165091,1.00003338 7.01039979,1.19794941 7.40623234,1.59378196 C7.80206489,1.98961451 7.99998093,2.45836339 7.99998093,3.00002861 L10.499975,3.00002861 Z M5.99998569,2.5000298 C5.85415255,2.5000298 5.73436133,2.54690469 5.64061155,2.64065447 C5.54686178,2.73440424 5.49998689,2.85419547 5.49998689,3.00002861 C5.49998689,3.14586175 5.54686178,3.26565298 5.64061155,3.35940275 C5.73436133,3.45315253 5.85415255,3.50002742 5.99998569,3.50002742 C6.14581884,3.50002742 6.26561006,3.45315253 6.35935984,3.35940275 C6.45310961,3.26565298 6.4999845,3.14586175 6.4999845,3.00002861 C6.4999845,2.85419547 6.45310961,2.73440424 6.35935984,2.64065447 C6.26561006,2.54690469 6.14581884,2.5000298 5.99998569,2.5000298 Z M10.499975,15.2499994 L10.499975,4.75002444 C10.499975,4.68752459 10.4739335,4.63023322 10.4218502,4.57814985 C10.3697668,4.52606648 10.3124754,4.50002503 10.2499756,4.50002503 L8.99997854,4.50002503 L8.99997854,5.50002265 C8.99997854,5.64585579 8.95310365,5.76564702 8.85935388,5.85939679 C8.7656041,5.95314657 8.64581288,6.00002146 8.49997973,6.00002146 L3.49999166,6.00002146 C3.35415851,6.00002146 3.23436729,5.95314657 3.14061751,5.85939679 C3.04686774,5.76564702 2.99999285,5.64585579 2.99999285,5.50002265 L2.99999285,4.50002503 L1.74999583,4.50002503 C1.68749598,4.50002503 1.63020461,4.52606648 1.57812124,4.57814985 C1.52603787,4.63023322 1.49999642,4.68752459 1.49999642,4.75002444 L1.49999642,15.2499994 C1.49999642,15.3124993 1.52603787,15.3697906 1.57812124,15.421874 C1.63020461,15.4739574 1.68749598,15.4999988 1.74999583,15.4999988 L10.2499756,15.4999988 C10.3124754,15.4999988 10.3697668,15.4739574 10.4218502,15.421874 C10.4739335,15.3697906 10.499975,15.3124993 10.499975,15.2499994 Z" id=""></path>
                <text id="Rate-Your-Run" font-family="OpenSans-SemiBold, Open Sans" font-size="14" font-weight="500" line-spacing="20">
                    <tspan x="17" y="15">Rate Your Run</tspan>
                </text>
            </g>
        </g>
    </g>
</svg>