<?xml version="1.0" encoding="UTF-8"?>
<svg width="133px" height="35px" viewBox="0 0 133 35" version="1.1" xmlns="http://www.w3.org/2000/svg" xmlns:xlink="http://www.w3.org/1999/xlink">
    <!-- Generator: Sketch 50.2 (55047) - http://www.bohemiancoding.com/sketch -->
    <title>button</title>
    <desc>Created with Sketch.</desc>
    <defs></defs>
    <g id="Page-1" stroke="none" stroke-width="1" fill="none" fill-rule="evenodd">
        <g id="button">
            <rect id="Rectangle-2-Copy-5" stroke="#D1D1D1" fill="#F7F9FA" x="0.5" y="0.5" width="132" height="34" rx="3"></rect>
            <g id="Group-10" transform="translate(11.000000, 8.000000)" fill="#555555">
                <path d="M7.35545121,7.92970197 L8.01169965,8.55860672 C8.04815776,8.61329409 8.06638702,8.6816533 8.06638702,8.76368436 C8.06638702,8.84571541 8.04815776,8.9049602 8.01169965,8.94141831 L4.75780116,12.1679731 C4.70311379,12.2226605 4.63931199,12.2500042 4.56639536,12.2500042 C4.49347873,12.2500042 4.42967694,12.2226605 4.37498957,12.1679731 L2.48827532,10.2812589 C2.43358795,10.2265715 2.40624426,10.1627697 2.40624426,10.0898531 C2.40624426,10.0169364 2.43358795,9.95313465 2.48827532,9.89844728 L3.14452375,9.24219884 C3.19921112,9.20574074 3.26301291,9.18751147 3.33592955,9.18751147 C3.40884618,9.18751147 3.47264797,9.20574074 3.52733534,9.24219884 L4.56639536,10.3086026 L6.97263963,7.92970197 C7.027327,7.8750146 7.09112879,7.84767092 7.16404542,7.84767092 C7.23696205,7.84767092 7.30076384,7.8750146 7.35545121,7.92970197 Z M9.1874781,3.50002503 C9.55206042,3.50002503 9.86195579,3.62762904 10.1171634,3.88283662 C10.372371,4.13804421 10.499975,4.44793958 10.499975,4.8125219 L10.499975,14.437499 C10.499975,14.8020813 10.372371,15.1119767 10.1171634,15.3671842 C9.86195579,15.6223918 9.55206042,15.7499958 9.1874781,15.7499958 L1.31249687,15.7499958 C0.947914546,15.7499958 0.638019173,15.6223918 0.382811587,15.3671842 C0.127604002,15.1119767 0,14.8020813 0,14.437499 L0,4.8125219 C0,4.44793958 0.127604002,4.13804421 0.382811587,3.88283662 C0.638019173,3.62762904 0.947914546,3.50002503 1.31249687,3.50002503 L3.49999166,3.50002503 C3.49999166,3.02606797 3.67316819,2.6159127 4.01952167,2.26955922 C4.36587515,1.92320574 4.77603042,1.75002921 5.24998748,1.75002921 C5.72394455,1.75002921 6.13409982,1.92320574 6.4804533,2.26955922 C6.82680678,2.6159127 6.99998331,3.02606797 6.99998331,3.50002503 L9.1874781,3.50002503 Z M5.24998748,3.06252608 C5.12238348,3.06252608 5.01756616,3.1035416 4.93553511,3.18557266 C4.85350405,3.26760371 4.81248853,3.37242103 4.81248853,3.50002503 C4.81248853,3.62762904 4.85350405,3.73244635 4.93553511,3.81447741 C5.01756616,3.89650846 5.12238348,3.93752399 5.24998748,3.93752399 C5.37759148,3.93752399 5.4824088,3.89650846 5.56443986,3.81447741 C5.64647091,3.73244635 5.68748644,3.62762904 5.68748644,3.50002503 C5.68748644,3.37242103 5.64647091,3.26760371 5.56443986,3.18557266 C5.4824088,3.1035416 5.37759148,3.06252608 5.24998748,3.06252608 Z M9.1874781,14.2187495 L9.1874781,5.03127138 C9.1874781,4.97658401 9.16469183,4.92645406 9.11911888,4.88088112 C9.07354594,4.83530817 9.02341599,4.8125219 8.96872862,4.8125219 L7.87498122,4.8125219 L7.87498122,5.68751982 C7.87498122,5.81512382 7.8339657,5.91994114 7.75193464,6.00197219 C7.66990359,6.08400325 7.56508627,6.12501878 7.43748227,6.12501878 L3.0624927,6.12501878 C2.9348887,6.12501878 2.83007138,6.08400325 2.74804032,6.00197219 C2.66600927,5.91994114 2.62499374,5.81512382 2.62499374,5.68751982 L2.62499374,4.8125219 L1.53124635,4.8125219 C1.47655898,4.8125219 1.42642903,4.83530817 1.38085608,4.88088112 C1.33528314,4.92645406 1.31249687,4.97658401 1.31249687,5.03127138 L1.31249687,14.2187495 C1.31249687,14.2734368 1.33528314,14.3235668 1.38085608,14.3691397 C1.42642903,14.4147127 1.47655898,14.437499 1.53124635,14.437499 L8.96872862,14.437499 C9.02341599,14.437499 9.07354594,14.4147127 9.11911888,14.3691397 C9.16469183,14.3235668 9.1874781,14.2734368 9.1874781,14.2187495 Z" id=""></path>
                <text id="Rate-Your-Run" font-family="OpenSans-Regular, Open Sans" font-size="14" font-weight="normal" line-spacing="20">
                    <tspan x="19" y="15">Rate Your Run</tspan>
                </text>
            </g>
        </g>
    </g>
</svg>